<?xml version="1.0"?>
<svg xmlns="http://www.w3.org/2000/svg" width="24" height="24" viewBox="0 0 24 24">
    <path d="M 12 1 C 5.3644809 1 0 6.3644809 0 13 C 0 15.502899 0.76082185 17.899599 2.1875 19.875 L 3.8125 18.71875 C 3.745998 18.62667 3.6880511 18.531923 3.625 18.4375 L 5.34375 17.4375 L 4.84375 16.5625 L 3.09375 17.5625 C 2.4523779 16.329223 2.1017196 14.940988 2.03125 13.5 L 4 13.5 L 4 12.5 L 2.03125 12.5 C 2.102065 11.037691 2.4703401 9.661181 3.09375 8.4375 L 4.84375 9.4375 L 5.34375 8.5625 L 3.59375 7.53125 C 4.3570299 6.3556637 5.3829479 5.3839741 6.5625 4.625 L 7.5625 6.34375 L 8.4375 5.84375 L 7.4375 4.125 C 8.6675849 3.4993321 10.031243 3.1023248 11.5 3.03125 L 11.5 5 L 12.5 5 L 12.5 3.03125 C 13.968757 3.1023248 15.332415 3.4993321 16.5625 4.125 L 15.5625 5.84375 L 16.4375 6.34375 L 17.4375 4.625 C 18.617052 5.3839741 19.64297 6.3556637 20.40625 7.53125 L 19.84375 7.875 L 20.34375 8.71875 L 20.90625 8.40625 C 21.537519 9.6364135 21.897437 11.027397 21.96875 12.5 L 20 12.5 L 20 13.5 L 21.96875 13.5 C 21.9021 15.00218 21.533557 16.378055 20.90625 17.5625 L 19.15625 16.5625 L 18.65625 17.4375 L 20.375 18.4375 C 20.31878 18.517043 20.277726 18.610378 20.21875 18.6875 L 21.78125 19.90625 C 23.228913 18.013153 24 15.594444 24 13 C 24 6.3644809 18.635519 1 12 1 z M 19.59375 8.5 L 13.03125 11.3125 C 12.728709 11.128041 12.378344 11 12 11 C 10.9 11 10 11.9 10 13 C 10 14.1 10.9 15 12 15 C 13.1 15 14 14.1 14 13 C 14 12.957941 14.002592 12.916435 14 12.875 L 19.6875 8.59375 L 19.59375 8.5 z M 8 19 L 8 22 L 16 22 L 16 19 L 8 19 z"/>
</svg>
